<svg xmlns="http://www.w3.org/2000/svg" viewBox="0 0 80 80" width="40px" height="40px"><path fill="#ffc49c" d="M28 19H52V61H28z"/><path fill="#ffeea3" d="M54,14.5c-4.983,0-9.629,1.435-13.557,3.906L40,19.298c6.633,4.5,11,12.1,11,20.702 s-4.367,16.202-11,20.702l0.443,0.892C44.371,64.065,49.017,65.5,54,65.5c14.083,0,25.5-11.417,25.5-25.5S68.083,14.5,54,14.5z"/><path fill="#f78f8f" d="M29,40c0-8.602,4.367-16.202,11-20.702l-0.443-0.892C35.629,15.935,30.983,14.5,26,14.5 C11.917,14.5,0.5,25.917,0.5,40S11.917,65.5,26,65.5c4.983,0,9.629-1.435,13.557-3.906L40,60.702C33.367,56.202,29,48.602,29,40z"/><path fill="#c74343" d="M39.095,61.285C35.284,63.638,30.799,65,26,65C12.215,65,1,53.785,1,40s11.215-25,25-25 c4.799,0,9.284,1.362,13.095,3.715c0.305,0.189,0.608,0.381,0.905,0.583c0.297-0.201,0.599-0.394,0.905-0.583 c-0.297-0.209-0.599-0.411-0.905-0.607C35.955,15.513,31.152,14,26,14C11.664,14,0,25.664,0,40s11.664,26,26,26 c5.152,0,9.955-1.513,14-4.108c0.306-0.196,0.608-0.398,0.905-0.607c-0.305-0.189-0.608-0.381-0.905-0.583 C39.703,60.903,39.401,61.096,39.095,61.285z"/><path fill="#ba9b48" d="M54,14c-5.152,0-9.955,1.513-14,4.108c-0.306,0.196-0.608,0.398-0.905,0.607 c0.305,0.189,0.608,0.381,0.905,0.583c0.297-0.201,0.599-0.394,0.905-0.583C44.716,16.362,49.201,15,54,15c13.785,0,25,11.215,25,25 S67.785,65,54,65c-4.799,0-9.284-1.362-13.095-3.715c-0.305-0.189-0.608-0.381-0.905-0.583c-0.297,0.201-0.599,0.394-0.905,0.583 c0.297,0.209,0.599,0.411,0.905,0.607C44.045,64.487,48.848,66,54,66c14.336,0,26-11.664,26-26S68.336,14,54,14z"/></svg>